HIERARCHY
ROOT Hips
{
    OFFSET 0.000000 0.000000 0.000000
    CHANNELS 6 Xposition Yposition Zposition Zrotation Xrotation Yrotation
    JOINT Spine
    {
        OFFSET -0.000000 7.236184 0.000000
        CHANNELS 3 Zrotation Xrotation Yrotation
        JOINT Spine1
        {
            OFFSET -0.000000 20.420147 0.000000
            CHANNELS 3 Zrotation Xrotation Yrotation
            JOINT Neck
            {
                OFFSET -0.000000 20.336288 1.848754
                CHANNELS 3 Zrotation Xrotation Yrotation
                JOINT Head
                {
                    OFFSET -0.000000 12.354461 -1.764923
                    CHANNELS 3 Zrotation Xrotation Yrotation
                    End Site
                    {
                        OFFSET -0.000000 22.061537 0.000000
                    }
                }
            }
            JOINT LeftShoulder
            {
                OFFSET 3.573296 18.396038 -0.314103
                CHANNELS 3 Zrotation Xrotation Yrotation
                JOINT LeftArm
                {
                    OFFSET 10.880760 0.000000 0.000000
                    CHANNELS 3 Zrotation Xrotation Yrotation
                    JOINT LeftForeArm
                    {
                        OFFSET 27.185530 0.000000 0.000000
                        CHANNELS 3 Zrotation Xrotation Yrotation
                        JOINT LeftHand
                        {
                            OFFSET 27.825975 0.000000 0.000000
                            CHANNELS 3 Zrotation Xrotation Yrotation
                            End Site
                            {
                                OFFSET 13.236923 0.000000 0.000000
                            }
                        }
                    }
                }
            }
            JOINT RightShoulder
            {
                OFFSET -3.474926 18.396038 -0.314103
                CHANNELS 3 Zrotation Xrotation Yrotation
                JOINT RightArm
                {
                    OFFSET -10.880760 0.000000 0.000000
                    CHANNELS 3 Zrotation Xrotation Yrotation
                    JOINT RightForeArm
                    {
                        OFFSET -27.185530 0.000000 0.000000
                        CHANNELS 3 Zrotation Xrotation Yrotation
                        JOINT RightHand
                        {
                            OFFSET -27.825975 0.000000 0.000000
                            CHANNELS 3 Zrotation Xrotation Yrotation
                            End Site
                            {
                                OFFSET -13.236923 0.000000 0.000000
                            }
                        }
                    }
                }
            }
        }
    }
    JOINT LeftUpLeg
    {
        OFFSET 8.824615 0.000000 0.000000
        CHANNELS 3 Zrotation Xrotation Yrotation
        JOINT LeftLeg
        {
            OFFSET -0.000000 -35.111282 0.000000
            CHANNELS 3 Zrotation Xrotation Yrotation
            JOINT LeftFoot
            {
                OFFSET -0.000000 -42.324711 0.000000
                CHANNELS 3 Zrotation Xrotation Yrotation
                JOINT LeftToeBase
                {
                    OFFSET -0.000000 -5.735999 13.236923
                    CHANNELS 3 Zrotation Xrotation Yrotation
                    End Site
                    {
                        OFFSET -0.000000 0.000000 3.529846
                    }
                }
            }
        }
    }
    JOINT RightUpLeg
    {
        OFFSET -8.824615 0.000000 0.000000
        CHANNELS 3 Zrotation Xrotation Yrotation
        JOINT RightLeg
        {
            OFFSET -0.000000 -35.111282 0.000000
            CHANNELS 3 Zrotation Xrotation Yrotation
            JOINT RightFoot
            {
                OFFSET -0.000000 -42.324711 0.000000
                CHANNELS 3 Zrotation Xrotation Yrotation
                JOINT RightToeBase
                {
                    OFFSET -0.000000 -5.735999 13.236923
                    CHANNELS 3 Zrotation Xrotation Yrotation
                    End Site
                    {
                        OFFSET -0.000000 0.000000 3.529846
                    }
                }
            }
        }
    }
}
MOTION
Frames:    6
Frame Time:    0.008333
-5.076149    84.154579    113.087845    0.162514    -53.325520    -173.535400    -1.802242    18.791220    0.729034    1.380269    13.511794    0.267309    44.262611    75.103844    -45.699574    6.596291    -45.564091    -10.824686    -0.067098    23.182005    -10.626142    -57.984238    19.889681    -19.688301    9.626812    -8.100896    -3.690093    56.873516    -3.210371    8.483858    5.502207    21.274881    2.284077    36.922886    43.958607    34.879326    -11.790582    -24.253105    95.215866    -7.312618    -11.753576    -2.476856    -7.731130    -56.940063    -14.508021    1.994859    1.726819    3.879189    -2.050256    4.068074    -9.074333    -0.298925    1.463308    0.330488    -11.934447    -52.655811    -2.774831    2.504117    -4.191494    -0.340324    -0.112445    5.777248    -12.234355    -0.243861    2.351945    0.262920    
-5.075860    84.152504    113.135910    0.190237    -53.413109    -173.521042    -1.785208    18.652443    0.723540    1.422357    13.569491    0.261281    45.857082    75.335594    -47.363918    6.491840    -45.719864    -11.157799    -0.071715    23.165287    -10.597093    -57.957317    19.943083    -19.730625    9.650122    -8.096818    -3.718072    56.886669    -3.213189    8.463075    5.496125    21.279922    2.258492    36.921864    43.956512    34.897270    -11.775734    -24.245598    95.268394    -7.512474    -11.778146    -1.971496    -7.729517    -57.075165    -14.468678    1.978615    1.743995    3.829532    -2.038188    4.083641    -9.079630    -0.304657    1.464331    0.336824    -11.942782    -52.781975    -2.776253    2.490895    -4.187027    -0.351864    -0.106973    5.802831    -12.242133    -0.239051    2.359160    0.257732    
-5.075875    84.150299    113.184395    0.216866    -53.495895    -173.509003    -1.769246    18.505032    0.718014    1.463372    13.630635    0.254889    47.305607    75.520073    -48.880329    6.382312    -45.831848    -11.479403    -0.079117    23.141359    -10.555399    -57.927753    20.005531    -19.778389    9.675676    -8.096020    -3.744751    56.904701    -3.217124    8.445532    5.487810    21.278061    2.227204    36.919388    43.952038    34.921520    -11.768057    -24.238850    95.295197    -7.710943    -11.810021    -1.364067    -7.721210    -57.202625    -14.425920    1.960021    1.754807    3.785372    -2.025171    4.100042    -9.088353    -0.311568    1.465601    0.344465    -11.948195    -52.903053    -2.773078    2.477200    -4.184244    -0.363404    -0.101374    5.829231    -12.250448    -0.234247    2.366453    0.252551    
-5.076202    84.147949    113.233658    0.242425    -53.574329    -173.499466    -1.754280    18.347311    0.712184    1.503362    13.696359    0.248424    48.603188    75.663223    -50.245342    6.270536    -45.899654    -11.789772    -0.089296    23.109545    -10.499994    -57.895054    20.077665    -19.832735    9.704006    -8.097093    -3.770679    56.929836    -3.221034    8.430193    5.477198    21.269058    2.189638    36.915142    43.945221    34.952530    -11.767431    -24.232933    95.293327    -7.909993    -11.852927    -0.619351    -7.705508    -57.323223    -14.379982    1.938362    1.759336    3.748076    -2.011044    4.117295    -9.101456    -0.320019    1.466886    0.353807    -11.950388    -53.019871    -2.764328    2.462529    -4.183112    -0.375412    -0.095467    5.856564    -12.259476    -0.229414    2.373722    0.247338    
-5.076827    84.145462    113.283813    0.267132    -53.648495    -173.492310    -1.740101    18.177954    0.706113    1.542237    13.767645    0.241721    49.736366    75.769150    -51.446575    6.160281    -45.921837    -12.086819    -0.102632    23.068953    -10.429698    -57.858562    20.160141    -19.894386    9.735697    -8.098997    -3.796089    56.964283    -3.224106    8.416163    5.464433    21.252340    2.145420    36.908672    43.936302    34.990322    -11.773765    -24.228062    95.258728    -8.110595    -11.911311    0.300030    -7.681970    -57.437206    -14.331094    1.913561    1.757720    3.718110    -1.996027    4.135263    -9.119383    -0.330250    1.467830    0.365117    -11.949156    -53.132553    -2.749059    2.447001    -4.183537    -0.388437    -0.089733    5.884727    -12.269407    -0.224529    2.380929    0.242068    
-5.077743    84.142891    113.334740    0.291035    -53.718208    -173.487564    -1.726657    17.996370    0.699900    1.579788    13.845098    0.234789    50.690254    75.841202    -52.469803    6.055619    -45.897152    -12.367259    -0.118912    23.019268    -10.343794    -57.818035    20.253006    -19.964500    9.771156    -8.100378    -3.821007    57.009563    -3.225054    8.403035    5.449270    21.227802    2.094212    36.899574    43.925358    35.035500    -11.786542    -24.224422    95.187271    -8.311810    -11.990408    1.430715    -7.650292    -57.544670    -14.279677    1.885484    1.750575    3.696057    -1.980430    4.153656    -9.142400    -0.342504    1.468298    0.378665    -11.944464    -53.241119    -2.726589    2.430516    -4.185124    -0.401632    -0.083063    5.913386    -12.281734    -0.219609    2.388061    0.236761    
